<svg width="40" height="41" viewBox="0 0 40 41" fill="none" xmlns="http://www.w3.org/2000/svg">
<g clip-path="url(#clip0_2071_568)">
<path fill-rule="evenodd" clip-rule="evenodd" d="M20 10.5C14.47 10.5 10 14.97 10 20.5C10 26.03 14.47 30.5 20 30.5C25.53 30.5 30 26.03 30 20.5C30 14.97 25.53 10.5 20 10.5ZM20 28.5C15.59 28.5 12 24.91 12 20.5C12 16.09 15.59 12.5 20 12.5C24.41 12.5 28 16.09 28 20.5C28 24.91 24.41 28.5 20 28.5ZM20 19.09L23.59 15.5L25 16.91L21.41 20.5L25 24.09L23.59 25.5L20 21.91L16.41 25.5L15 24.09L18.59 20.5L15 16.91L16.41 15.5L20 19.09Z" fill="#CAC4D0"/>
</g>
<defs>
<clipPath id="clip0_2071_568">
<rect y="0.5" width="40" height="40" rx="20" fill="white"/>
</clipPath>
</defs>
</svg>
