<svg width="40" height="41" viewBox="0 0 40 41" fill="none" xmlns="http://www.w3.org/2000/svg">
<g clip-path="url(#clip0_3_9700)">
<path d="M20 15C23.79 15 27.17 17.13 28.82 20.5C27.17 23.87 23.79 26 20 26C16.21 26 12.83 23.87 11.18 20.5C12.83 17.13 16.21 15 20 15ZM20 13C15 13 10.73 16.11 9 20.5C10.73 24.89 15 28 20 28C25 28 29.27 24.89 31 20.5C29.27 16.11 25 13 20 13ZM20 18C21.38 18 22.5 19.12 22.5 20.5C22.5 21.88 21.38 23 20 23C18.62 23 17.5 21.88 17.5 20.5C17.5 19.12 18.62 18 20 18ZM20 16C17.52 16 15.5 18.02 15.5 20.5C15.5 22.98 17.52 25 20 25C22.48 25 24.5 22.98 24.5 20.5C24.5 18.02 22.48 16 20 16Z" fill="#CAC4D0"/>
</g>
<defs>
<clipPath id="clip0_3_9700">
<rect y="0.5" width="40" height="40" rx="20" fill="white"/>
</clipPath>
</defs>
</svg>
